<?xml version="1.0" standalone="no"?>
<!DOCTYPE svg PUBLIC "-//W3C//DTD SVG 20010904//EN"
 "http://www.w3.org/TR/2001/REC-SVG-20010904/DTD/svg10.dtd">
<svg version="1.0" xmlns="http://www.w3.org/2000/svg"
 width="192.000000pt" height="192.000000pt" viewBox="0 0 192.000000 192.000000"
 preserveAspectRatio="xMidYMid meet">
<g transform="translate(0.000000,192.000000) scale(0.100000,-0.100000)"
fill="#000000" stroke="none">
<path d="M931 1596 c-7 -8 -16 -27 -20 -42 -6 -24 -16 -30 -60 -42 l-54 -13
-34 37 -33 37 -24 -22 c-19 -18 -23 -30 -19 -59 4 -35 2 -39 -42 -66 -46 -28
-46 -28 -79 -11 -26 14 -37 15 -54 6 -26 -14 -28 -33 -5 -71 16 -27 15 -29
-13 -74 -27 -42 -32 -46 -66 -44 -69 4 -89 -40 -37 -82 l30 -26 -13 -53 c-12
-47 -18 -55 -47 -65 -66 -22 -64 -63 5 -92 25 -11 32 -21 42 -65 13 -53 13
-53 -18 -77 -52 -41 -32 -86 36 -80 35 3 39 0 67 -46 29 -47 30 -49 13 -77
-31 -52 9 -98 56 -65 31 22 42 20 87 -11 36 -25 40 -33 41 -68 0 -71 38 -86
81 -33 l26 32 54 -15 c46 -12 54 -18 61 -46 17 -66 66 -64 94 3 11 27 22 34
65 44 l52 13 26 -32 c43 -52 81 -36 81 35 0 37 4 44 40 68 47 31 49 31 89 8
30 -17 31 -16 53 5 22 22 22 24 5 52 -23 39 -22 45 13 96 28 41 33 43 65 38
66 -11 88 40 34 79 -27 20 -30 27 -24 58 11 63 16 71 55 86 21 9 41 22 44 31
9 24 -13 53 -45 60 -34 6 -44 21 -52 78 -6 36 -3 44 23 69 35 32 37 47 12 69
-12 11 -29 15 -52 11 -32 -4 -38 -1 -62 35 -33 46 -34 53 -11 92 17 28 17 30
-5 51 -21 21 -22 21 -57 5 -35 -17 -37 -17 -81 9 -46 27 -47 29 -44 79 1 20
-6 38 -20 50 -21 19 -21 19 -57 -18 -19 -21 -41 -36 -48 -33 -8 3 -30 8 -50
12 -26 5 -40 14 -48 33 -24 57 -53 75 -76 47z m39 -56 c0 -48 1 -50 28 -50 23
0 54 -7 140 -31 8 -2 20 12 29 36 20 49 19 48 32 40 7 -4 4 -20 -10 -47 -11
-22 -19 -41 -17 -43 2 -1 17 -10 34 -18 17 -9 52 -32 77 -51 l45 -34 32 34
c17 19 36 32 42 28 6 -4 -4 -21 -25 -42 l-35 -35 35 -46 c20 -25 42 -60 51
-78 l15 -31 43 21 c24 11 46 18 50 15 11 -12 -4 -24 -46 -38 -31 -10 -39 -17
-34 -29 3 -9 13 -51 22 -93 l15 -78 44 0 c23 0 43 -4 43 -10 0 -5 -19 -10 -43
-10 l-42 0 -17 -77 c-9 -43 -17 -84 -19 -91 -3 -8 13 -20 36 -29 49 -20 48
-19 41 -32 -4 -6 -23 -3 -52 9 l-45 20 -10 -28 c-6 -15 -28 -50 -49 -78 l-39
-51 34 -33 c19 -18 32 -37 28 -43 -3 -5 -21 7 -41 26 l-35 35 -51 -38 c-28
-21 -63 -43 -78 -49 l-28 -10 20 -45 c11 -28 15 -48 9 -51 -5 -4 -18 13 -29
38 l-19 44 -68 -18 c-37 -10 -78 -18 -90 -18 -20 -1 -23 -6 -23 -46 0 -25 -4
-45 -10 -45 -5 0 -10 20 -10 44 l0 44 -52 7 c-29 4 -70 14 -91 21 l-38 13 -19
-45 c-11 -25 -24 -43 -29 -39 -6 3 -3 23 9 49 l18 43 -31 15 c-18 9 -53 31
-78 51 l-46 35 -35 -35 c-21 -21 -38 -31 -42 -25 -4 6 9 25 28 42 l34 32 -35
46 c-20 26 -42 61 -51 79 l-15 31 -44 -19 c-54 -23 -53 -23 -53 -4 0 8 4 15 9
15 5 0 25 7 44 15 l36 15 -14 40 c-8 23 -17 63 -21 90 l-7 50 -48 0 c-27 0
-49 5 -49 10 0 6 22 10 49 10 l48 0 6 48 c3 26 12 67 20 91 l15 43 -34 14
c-18 8 -38 14 -44 14 -5 0 -10 7 -10 15 0 19 -1 19 53 -4 l44 -19 16 37 c10
21 32 55 51 77 l34 39 -35 36 c-19 20 -31 39 -25 42 5 4 24 -9 42 -28 l33 -34
40 35 c23 19 58 42 78 51 l37 16 -19 44 c-22 52 -22 53 -9 53 6 0 19 -20 30
-45 l19 -44 35 14 c19 8 60 18 90 21 l56 7 0 48 c0 27 5 49 10 49 6 0 10 -22
10 -50z"/>
<path d="M905 1465 c-5 -1 -36 -8 -68 -15 -55 -11 -58 -13 -53 -36 7 -28 -8
-32 -23 -7 -8 16 -12 16 -46 -2 -20 -11 -52 -33 -71 -49 -28 -23 -32 -31 -23
-42 15 -19 4 -30 -15 -15 -11 9 -20 5 -44 -25 -16 -20 -38 -52 -48 -71 -18
-33 -18 -35 -1 -44 25 -15 21 -30 -7 -23 -23 5 -25 2 -40 -65 -21 -90 -20
-101 4 -101 11 0 20 -4 20 -10 0 -5 -9 -10 -21 -10 -19 0 -20 -4 -14 -42 4
-24 12 -62 17 -86 10 -39 13 -43 34 -38 28 7 32 -8 7 -23 -17 -9 -17 -11 1
-43 11 -18 33 -50 49 -71 23 -30 32 -35 43 -26 19 15 30 4 15 -15 -9 -11 -4
-20 26 -44 21 -16 53 -37 72 -47 31 -16 35 -16 43 -1 14 25 29 19 22 -8 -5
-23 -2 -25 48 -34 124 -24 118 -24 118 4 0 14 4 22 10 19 6 -3 10 -15 10 -26
0 -15 5 -19 18 -16 9 3 48 11 85 17 65 12 68 14 63 36 -7 27 8 32 22 8 11 -19
29 -12 105 43 39 29 45 38 36 49 -15 19 -4 30 14 15 15 -12 37 11 87 93 21 35
22 39 7 48 -25 14 -20 29 6 22 22 -5 25 -1 36 58 7 35 14 73 17 86 3 17 0 22
-15 22 -11 0 -23 5 -26 10 -4 6 5 10 20 10 21 0 25 4 21 23 -3 12 -10 50 -17
85 -11 59 -14 63 -36 58 -16 -5 -23 -2 -23 9 0 8 7 15 15 15 21 0 19 10 -16
66 -47 74 -59 86 -76 73 -18 -15 -29 -3 -14 15 9 11 4 20 -26 43 -21 16 -53
38 -71 49 -32 18 -34 18 -46 2 -19 -25 -29 -22 -22 6 5 22 2 25 -42 34 -120
26 -122 26 -122 3 0 -11 -4 -21 -10 -21 -5 0 -10 9 -10 20 0 19 -16 24 -45 15z
m154 -66 c123 -28 252 -130 305 -242 134 -286 -50 -612 -364 -643 -134 -13
-257 32 -356 130 -98 99 -141 214 -131 356 18 265 285 460 546 399z"/>
<path d="M839 1375 c-308 -99 -409 -474 -191 -707 244 -261 674 -128 735 228
32 183 -74 375 -251 456 -56 26 -81 32 -157 35 -60 2 -105 -2 -136 -12z m194
-24 c21 -5 40 -11 42 -13 6 -5 -44 -160 -56 -174 -10 -13 -97 -13 -116 -1 -7
4 -22 38 -33 74 -11 37 -25 72 -31 79 -26 32 105 55 194 35z m-213 -73 c7 -24
20 -73 31 -109 l20 -66 45 9 c27 6 60 6 88 0 l44 -9 21 71 c11 39 24 86 29
105 4 19 13 36 18 38 6 2 23 -43 39 -99 15 -57 43 -152 62 -213 18 -60 33
-122 33 -136 0 -25 -1 -25 -62 -21 -39 3 -66 10 -71 18 -8 15 -35 18 -61 8
-24 -9 -21 -61 4 -74 21 -11 60 2 60 20 0 6 29 10 65 10 l65 0 -11 -27 c-6
-16 -20 -38 -32 -51 l-21 -23 -17 23 c-10 12 -21 19 -25 15 -4 -4 -2 -13 4
-19 15 -15 16 -48 2 -48 -6 0 -13 7 -16 15 -10 25 -25 17 -18 -9 6 -24 -10
-44 -21 -26 -11 18 -27 11 -20 -10 6 -18 2 -20 -49 -20 -49 0 -56 2 -56 20 0
11 9 29 20 40 28 28 17 40 -36 40 -48 0 -61 -20 -25 -39 10 -6 21 -22 23 -36
5 -24 4 -25 -54 -25 -48 0 -59 3 -55 14 8 19 -3 28 -18 16 -9 -7 -16 -6 -25 5
-7 8 -18 15 -26 15 -22 0 -27 20 -8 41 9 10 14 22 10 27 -5 4 -15 -3 -23 -15
-21 -32 -29 -29 -58 20 -29 51 -33 116 -10 174 8 21 23 72 34 113 46 172 74
260 82 260 4 0 13 -19 19 -42z m-132 -179 c-88 -295 -74 -347 124 -462 43 -24
57 -27 143 -27 107 0 120 5 224 78 131 94 134 148 25 492 -28 87 -28 90 -11
90 22 0 94 -82 124 -140 26 -50 28 -64 28 -165 0 -99 -3 -116 -27 -168 -39
-84 -114 -158 -198 -196 -67 -31 -76 -33 -168 -29 -84 3 -106 7 -163 34 -196
93 -281 322 -190 516 29 63 79 125 116 146 11 6 21 9 22 8 2 -1 -20 -81 -49
-177z"/>
<path d="M810 865 c-7 -9 -28 -15 -51 -15 -22 0 -39 -4 -39 -10 0 -5 18 -10
39 -10 26 0 41 -5 45 -16 8 -20 55 -15 70 9 23 36 -36 76 -64 42z"/>
</g>
</svg>
